<?xml version="1.0" standalone="no"?>
<!DOCTYPE svg PUBLIC "-//W3C//DTD SVG 20010904//EN"
 "http://www.w3.org/TR/2001/REC-SVG-20010904/DTD/svg10.dtd">
<svg version="1.0" xmlns="http://www.w3.org/2000/svg"
 width="353.000000pt" height="118.000000pt" viewBox="0 0 353.000000 118.000000"
 preserveAspectRatio="xMidYMid meet">

<g transform="translate(0.000000,118.000000) scale(0.100000,-0.100000)"
fill="#000000" stroke="none">
<path d="M535 1082 c-231 -78 -375 -269 -375 -497 0 -113 44 -232 118 -324 72
-88 220 -173 324 -186 34 -4 29 -1 -22 13 -205 55 -362 212 -401 401 -45 217
75 452 285 554 91 45 169 60 291 55 61 -2 99 -1 85 3 -14 4 -70 7 -125 8 -84
0 -113 -4 -180 -27z"/>
<path d="M922 1067 c89 -38 145 -74 201 -130 190 -191 195 -487 11 -687 -102
-109 -222 -164 -392 -180 l-97 -9 95 4 c123 5 208 32 305 96 224 150 296 417
179 658 -54 110 -220 245 -329 266 -17 4 -5 -4 27 -18z"/>
<path d="M693 1063 c-40 -8 -24 -18 27 -18 28 0 50 3 50 8 0 4 -6 7 -14 7 -8
0 -20 2 -28 4 -7 2 -23 1 -35 -1z"/>
<path d="M720 1025 c0 -9 -10 -15 -27 -16 l-28 -1 25 -7 c24 -7 24 -7 5 -19
-11 -6 -15 -12 -10 -12 6 0 19 6 30 14 11 7 29 16 40 19 17 4 17 5 -4 6 -16 1
-21 5 -17 16 3 8 1 15 -4 15 -6 0 -10 -7 -10 -15z"/>
<path d="M924 1023 c11 -19 -4 -38 -16 -22 -7 10 -8 5 -3 -14 4 -21 3 -27 -6
-21 -7 4 -9 3 -5 -4 3 -5 1 -12 -6 -14 -7 -3 -2 -7 10 -10 12 -4 20 -2 16 3
-3 5 2 24 10 41 12 24 13 34 5 42 -9 8 -10 8 -5 -1z"/>
<path d="M480 1004 c0 -5 7 -19 15 -30 19 -25 19 -44 0 -44 -8 0 -15 4 -15 8
0 5 -7 17 -15 28 -8 10 -14 15 -14 9 -1 -5 8 -21 18 -35 l19 -24 36 19 c20 11
36 22 36 25 0 3 -10 16 -21 30 l-21 25 15 -26 c15 -25 14 -39 -4 -39 -4 0 -16
15 -28 33 -11 17 -21 27 -21 21z"/>
<path d="M945 991 c-9 -16 9 -20 23 -5 10 12 10 14 -2 14 -8 0 -17 -4 -21 -9z"/>
<path d="M975 970 c-3 -5 -1 -10 4 -10 6 0 11 5 11 10 0 6 -2 10 -4 10 -3 0
-8 -4 -11 -10z"/>
<path d="M605 936 c-109 -35 -194 -105 -241 -201 -26 -53 -29 -70 -29 -150 1
-79 4 -97 30 -148 74 -149 248 -236 417 -208 278 46 414 336 262 558 -42 62
-132 126 -207 148 -61 18 -177 19 -232 1z m139 -51 c0 -17 -4 -43 -9 -59 -8
-28 -7 -28 16 -13 42 26 90 29 127 7 17 -11 32 -26 32 -34 0 -18 -44 -52 -123
-96 -55 -31 -57 -33 -37 -47 30 -21 25 -41 -17 -65 -20 -12 -31 -24 -25 -26 7
-2 12 -12 12 -23 0 -15 7 -19 36 -19 19 0 57 -9 84 -21 78 -33 127 -125 85
-159 -29 -24 -240 -64 -286 -54 l-26 5 17 35 c10 19 24 41 30 49 7 8 10 21 7
29 -5 13 -12 13 -52 -1 -47 -16 -92 -62 -67 -71 6 -2 12 -10 12 -18 0 -20 -47
-18 -58 4 -23 43 47 114 131 132 65 13 97 7 132 -26 34 -31 28 -46 -21 -62
-21 -7 -46 -20 -54 -28 -13 -13 -11 -14 20 -8 93 15 155 54 148 91 -5 30 -84
63 -150 63 -61 0 -75 9 -59 38 8 16 6 21 -15 31 -31 14 -27 32 10 42 15 4 34
13 42 19 12 10 10 15 -11 32 -14 11 -25 24 -25 29 0 5 21 20 48 33 26 13 62
36 81 50 l35 26 -31 0 c-17 0 -36 -7 -43 -15 -26 -31 -77 -6 -67 32 3 10 9 29
12 42 5 15 3 21 -3 17 -6 -3 -16 -32 -23 -63 -21 -93 -80 -140 -123 -97 -34
33 -14 88 30 82 25 -3 34 4 75 66 26 38 53 72 60 77 26 16 44 5 43 -26z"/>
<path d="M945 940 c3 -6 1 -10 -5 -10 -6 0 -8 -4 -5 -10 9 -14 22 -12 28 4 3
8 -1 17 -9 20 -9 3 -12 1 -9 -4z"/>
<path d="M1103 872 c10 -4 26 -21 37 -37 11 -17 20 -25 20 -19 0 20 -41 64
-58 63 -15 0 -15 -1 1 -7z"/>
<path d="M300 850 c0 -14 18 -21 25 -10 7 12 57 2 67 -14 6 -8 8 -7 8 1 0 6
-5 15 -11 18 -17 11 -89 15 -89 5z"/>
<path d="M1084 844 c5 -14 4 -15 -9 -4 -13 11 -14 10 -8 -6 6 -17 5 -17 -10
-5 -24 19 -21 11 8 -29 14 -19 25 -28 25 -21 0 7 4 10 8 7 5 -3 6 8 4 25 -3
18 0 29 7 29 7 0 9 5 6 10 -11 17 -38 12 -31 -6z"/>
<path d="M1590 830 c0 -17 -7 -20 -40 -20 -22 0 -40 5 -40 10 0 6 -9 10 -20
10 -15 0 -20 -7 -20 -25 0 -15 5 -25 13 -24 6 1 36 1 65 0 80 -2 54 -21 -29
-21 -39 0 -69 -4 -69 -10 0 -6 60 -10 160 -10 100 0 160 4 160 10 0 6 -30 10
-70 10 -84 0 -94 18 -12 22 50 3 57 6 60 26 3 17 -2 22 -17 22 -12 0 -21 -4
-21 -10 0 -5 -18 -10 -40 -10 -33 0 -40 3 -40 20 0 13 -7 20 -20 20 -13 0 -20
-7 -20 -20z"/>
<path d="M1945 842 c-3 -3 -5 -61 -5 -129 l0 -124 -37 3 -38 3 -3 93 c-2 84
-4 92 -22 92 -19 0 -20 -7 -20 -115 l0 -115 121 0 c102 0 124 -3 134 -17 7 -9
19 -14 29 -10 14 5 16 25 16 132 l0 125 -25 0 c-25 0 -25 0 -25 -96 l0 -95
-37 3 -38 3 -5 125 c-4 108 -7 125 -22 126 -9 1 -20 -1 -23 -4z"/>
<path d="M2726 795 c-26 -31 -46 -62 -43 -69 8 -21 188 -19 203 3 10 13 4 22
-32 54 -24 21 -44 45 -44 53 0 30 -38 11 -84 -41z m102 -50 c-3 -4 -25 -5 -48
-3 l-42 3 22 28 23 29 25 -26 c14 -14 23 -28 20 -31z"/>
<path d="M3103 842 c-13 -2 -23 -8 -23 -13 0 -5 -29 -9 -65 -9 l-65 0 0 -40
c0 -45 16 -53 30 -15 9 25 11 25 125 25 114 0 116 0 125 -25 14 -36 42 -22 38
19 -3 31 -4 31 -63 34 -33 1 -64 8 -70 15 -5 7 -20 11 -32 9z"/>
<path d="M2310 825 c0 -12 -15 -15 -71 -15 l-70 0 3 -37 c2 -30 7 -38 23 -38
13 0 20 7 20 20 0 19 8 20 118 23 l117 3 0 -26 c0 -18 5 -25 20 -25 17 0 20 7
20 40 l0 40 -60 0 c-45 0 -62 4 -66 15 -4 8 -17 15 -30 15 -15 0 -24 -6 -24
-15z"/>
<path d="M1115 819 c-4 -6 -3 -15 3 -21 6 -6 11 -4 15 6 7 18 -9 31 -18 15z"/>
<path d="M2550 815 c0 -10 10 -15 34 -15 43 0 49 -9 40 -65 -4 -31 -11 -45
-21 -45 -13 0 -15 9 -10 45 6 40 5 45 -13 45 -16 0 -20 -7 -20 -37 0 -21 -3
-48 -6 -60 -6 -21 -3 -23 40 -23 l47 0 -3 -47 c-3 -46 -4 -48 -35 -51 -34 -3
-38 -8 -25 -28 4 -8 21 -9 47 -5 l40 6 8 74 c6 55 5 76 -4 82 -9 5 -10 26 -5
73 l7 66 -61 0 c-47 0 -60 -3 -60 -15z"/>
<path d="M305 810 c3 -5 11 -10 16 -10 6 0 7 5 4 10 -3 6 -11 10 -16 10 -6 0
-7 -4 -4 -10z"/>
<path d="M2247 753 c-4 -3 -7 -10 -7 -14 0 -10 60 -30 71 -23 17 10 9 22 -22
33 -38 13 -34 13 -42 4z"/>
<path d="M2338 708 c-3 -50 -5 -53 -31 -56 -25 -3 -28 -1 -22 17 5 15 -1 23
-23 35 -26 13 -32 13 -42 1 -9 -11 -5 -17 22 -32 l33 -18 -52 -3 c-38 -2 -53
-7 -53 -18 0 -11 16 -14 70 -14 39 0 70 -4 70 -8 0 -11 -36 -27 -90 -42 -34
-9 -39 -14 -30 -26 18 -21 50 -17 105 11 l49 24 67 -24 c37 -13 70 -21 73 -18
17 17 0 32 -54 48 -33 10 -60 22 -60 27 0 4 29 8 65 8 51 0 65 3 65 15 0 12
-13 15 -61 15 l-62 0 6 55 c5 53 5 55 -18 55 -22 0 -24 -5 -27 -52z"/>
<path d="M3000 736 c0 -8 8 -16 18 -18 13 -3 9 -8 -16 -22 -46 -24 -36 -40 26
-44 68 -4 67 -20 0 -24 -41 -2 -54 -7 -56 -20 -3 -15 5 -18 52 -18 43 0 56 -3
56 -15 0 -12 -14 -15 -65 -15 -56 0 -65 -3 -65 -18 0 -16 12 -18 153 -16 180
2 167 0 167 19 0 12 -14 15 -70 15 -56 0 -70 3 -70 15 0 12 13 15 61 15 52 0
60 2 57 18 -4 18 -5 19 -74 21 -69 2 -52 26 19 26 31 0 59 4 63 7 3 4 -11 17
-31 30 -21 12 -33 24 -27 26 7 2 12 10 12 18 0 11 -21 14 -105 14 -84 0 -105
-3 -105 -14z m150 -20 c0 -2 3 -11 6 -20 5 -14 -3 -16 -52 -16 l-59 1 24 19
c20 17 81 29 81 16z"/>
<path d="M1500 695 l0 -25 110 0 110 0 0 25 0 25 -110 0 -110 0 0 -25z m180 0
c0 -12 -14 -15 -69 -15 -65 0 -90 8 -74 24 3 3 37 6 75 6 54 0 68 -3 68 -15z"/>
<path d="M2766 682 c-3 -5 -3 -25 1 -45 4 -28 10 -37 25 -37 14 0 18 5 14 18
-3 9 -8 29 -12 45 -6 27 -18 35 -28 19z"/>
<path d="M2827 620 l-17 -60 -60 0 c-47 0 -60 -3 -60 -15 0 -12 18 -15 100
-15 82 0 100 3 100 15 0 8 -9 15 -20 15 -24 0 -25 14 -6 68 8 22 12 43 9 46
-17 17 -31 0 -46 -54z"/>
<path d="M2698 664 c-8 -7 23 -84 33 -84 16 0 20 22 9 55 -11 32 -28 44 -42
29z"/>
<path d="M1462 588 c2 -48 7 -63 18 -63 11 0 16 14 18 53 l3 52 110 0 109 0 0
-40 c0 -36 -2 -40 -25 -40 -22 0 -38 -19 -17 -21 4 0 14 -2 22 -3 8 -2 25 0
38 5 19 7 22 15 22 64 l0 55 -150 0 -151 0 3 -62z"/>
<path d="M2557 623 c-14 -13 -6 -33 12 -33 30 0 51 11 51 26 0 14 -51 20 -63
7z"/>
<path d="M1532 578 c2 -27 7 -32 23 -29 11 2 46 5 78 8 52 4 57 7 57 29 0 23
-2 24 -81 24 l-80 0 3 -32z m118 2 c0 -5 -18 -10 -40 -10 -22 0 -40 5 -40 10
0 6 18 10 40 10 22 0 40 -4 40 -10z"/>
<path d="M267 470 c-14 -17 -14 -20 -2 -20 8 0 15 6 15 14 0 8 6 17 13 19 6 3
7 6 2 6 -6 1 -18 -8 -28 -19z"/>
<path d="M1468 469 c-25 -14 -22 -36 7 -55 32 -21 32 -32 -2 -36 -25 -4 -26
-5 -9 -13 22 -10 50 5 54 28 2 10 -7 22 -22 28 -35 16 -34 39 2 39 21 0 24 2
12 10 -18 12 -21 12 -42 -1z"/>
<path d="M1983 420 c0 -36 2 -54 4 -40 10 55 43 62 43 9 0 -16 5 -29 11 -29 6
0 9 16 7 38 -3 33 -6 37 -30 35 -22 -1 -28 3 -31 25 -2 15 -4 -2 -4 -38z"/>
<path d="M2340 422 l0 -62 30 0 c35 0 41 17 8 22 -20 3 -23 9 -24 45 -1 68
-14 63 -14 -5z"/>
<path d="M2530 427 c0 -48 3 -55 22 -60 12 -3 30 -2 40 4 34 18 16 76 -21 66
-16 -4 -21 -1 -21 13 0 11 -4 22 -10 25 -6 4 -10 -15 -10 -48z m57 -13 c3 -8
-1 -23 -10 -32 -15 -14 -17 -14 -23 1 -8 21 1 47 16 47 6 0 13 -7 17 -16z"/>
<path d="M1160 466 c0 -2 7 -7 16 -10 8 -3 12 -2 9 4 -6 10 -25 14 -25 6z"/>
<path d="M2933 463 c4 -3 2 -12 -4 -19 -7 -8 -7 -14 1 -19 5 -3 10 -19 10 -36
0 -21 5 -29 17 -29 13 0 14 3 5 12 -15 15 -16 58 -2 58 6 0 5 8 -2 20 -7 11
-17 20 -22 20 -5 0 -6 -3 -3 -7z"/>
<path d="M1568 439 c-27 -15 -23 -57 7 -71 30 -13 55 3 55 36 0 39 -28 55 -62
35z m42 -34 c0 -18 -5 -25 -20 -25 -15 0 -20 7 -20 25 0 18 5 25 20 25 15 0
20 -7 20 -25z"/>
<path d="M1671 400 c1 -46 3 -46 13 3 9 41 36 35 36 -8 0 -19 5 -35 10 -35 11
0 14 79 3 81 -5 1 -20 2 -35 3 -27 2 -28 0 -27 -44z"/>
<path d="M1786 435 c-28 -29 -14 -75 24 -75 12 1 12 3 -3 15 -23 16 -19 48 6
53 15 3 17 -3 15 -39 -3 -36 -7 -44 -28 -50 -23 -6 -23 -7 -3 -8 44 -2 53 9
53 60 0 27 -4 49 -9 49 -5 0 -16 3 -24 6 -8 3 -22 -2 -31 -11z"/>
<path d="M1903 443 c-20 -7 -15 -31 7 -43 22 -12 17 -35 -6 -26 -8 3 -14 1
-14 -4 0 -11 11 -13 34 -4 21 8 20 31 0 42 -9 5 -14 15 -10 21 4 6 12 9 17 6
5 -4 9 -1 9 4 0 11 -16 13 -37 4z"/>
<path d="M2096 441 c-3 -5 2 -8 11 -7 9 0 18 -5 20 -11 3 -8 -4 -13 -16 -13
-23 0 -39 -26 -25 -40 5 -5 21 -6 37 -3 21 4 27 11 27 32 0 39 -38 69 -54 42z
m34 -51 c0 -5 -7 -10 -15 -10 -8 0 -15 5 -15 10 0 6 7 10 15 10 8 0 15 -4 15
-10z"/>
<path d="M2191 402 c2 -34 3 -39 6 -17 3 17 9 35 14 41 6 8 4 14 -6 18 -12 4
-15 -3 -14 -42z"/>
<path d="M2234 434 c3 -8 6 -29 6 -45 0 -16 5 -29 10 -29 17 0 12 77 -6 84
-12 5 -15 2 -10 -10z"/>
<path d="M2435 439 c-4 -6 0 -9 11 -7 14 2 20 -4 22 -24 2 -20 -1 -28 -12 -28
-19 0 -21 16 -3 23 7 3 5 6 -6 6 -21 1 -34 -26 -20 -40 6 -6 22 -7 37 -3 21 5
26 12 26 39 0 39 -38 62 -55 34z"/>
<path d="M2658 439 c-22 -12 -23 -52 -3 -69 12 -10 21 -10 40 -2 31 14 34 56
6 72 -23 12 -22 12 -43 -1z m42 -34 c0 -18 -5 -25 -19 -25 -11 0 -21 6 -24 13
-7 20 4 37 24 37 14 0 19 -7 19 -25z"/>
<path d="M2755 441 c-9 -9 -5 -70 5 -76 6 -4 10 7 10 25 0 18 6 33 15 36 8 4
15 9 15 13 0 7 -38 9 -45 2z"/>
<path d="M2836 442 c-3 -5 2 -9 11 -8 25 2 27 -22 1 -26 -15 -2 -23 -10 -23
-23 0 -16 7 -20 33 -20 32 -1 33 0 30 40 -2 32 -7 41 -25 43 -11 2 -24 -1 -27
-6z m34 -52 c0 -5 -7 -10 -15 -10 -8 0 -15 5 -15 10 0 6 7 10 15 10 8 0 15 -4
15 -10z"/>
<path d="M3018 439 c-22 -12 -23 -52 -3 -69 12 -10 21 -10 40 -2 31 14 34 56
6 72 -23 12 -22 12 -43 -1z m42 -34 c0 -18 -5 -25 -20 -25 -15 0 -20 7 -20 25
0 18 5 25 20 25 15 0 20 -7 20 -25z"/>
<path d="M3115 441 c-9 -9 -5 -70 5 -76 6 -4 10 7 10 25 0 18 6 33 15 36 8 4
15 9 15 13 0 7 -38 9 -45 2z"/>
<path d="M3190 440 c0 -5 8 -26 17 -46 17 -35 17 -36 -2 -50 -17 -13 -17 -14
-2 -14 18 0 58 77 56 108 0 9 -7 1 -16 -18 l-15 -35 -13 33 c-14 31 -25 42
-25 22z"/>
<path d="M276 411 c-4 -5 3 -7 14 -4 23 6 26 13 6 13 -8 0 -17 -4 -20 -9z"/>
<path d="M1120 411 c0 -5 7 -12 16 -15 14 -5 15 -4 4 9 -14 17 -20 19 -20 6z"/>
<path d="M290 390 c-9 -6 -10 -10 -3 -10 6 0 15 5 18 10 8 12 4 12 -15 0z"/>
<path d="M332 346 c7 -8 15 -12 17 -11 5 6 -10 25 -20 25 -5 0 -4 -6 3 -14z"/>
<path d="M1050 316 c0 -2 8 -10 18 -17 15 -13 16 -12 3 4 -13 16 -21 21 -21
13z"/>
<path d="M1020 276 c0 -2 8 -10 18 -17 15 -13 16 -12 3 4 -13 16 -21 21 -21
13z"/>
<path d="M465 219 c-4 -6 -5 -12 -2 -15 2 -3 7 2 10 11 7 17 1 20 -8 4z"/>
<path d="M905 200 c-8 -13 3 -30 18 -30 8 0 7 3 -2 9 -7 5 -10 14 -7 20 4 6 5
11 2 11 -3 0 -8 -4 -11 -10z"/>
<path d="M546 173 c-6 -14 -5 -15 5 -6 7 7 10 15 7 18 -3 3 -9 -2 -12 -12z"/>
<path d="M591 154 c0 -11 3 -14 6 -6 3 7 2 16 -1 19 -3 4 -6 -2 -5 -13z"/>
<path d="M702 150 c0 -14 2 -19 5 -12 2 6 2 18 0 25 -3 6 -5 1 -5 -13z"/>
<path d="M787 149 c4 -13 8 -18 11 -10 2 7 -1 18 -6 23 -8 8 -9 4 -5 -13z"/>
</g>
</svg>
